<svg width="76" height="19" viewBox="0 0 76 19" fill="none" xmlns="http://www.w3.org/2000/svg">
<g id="logo" clip-path="url(#clip0_1070_26884)">
<path id="Vector" d="M16.7575 7.26108C16.7575 7.64622 16.7307 8.65784 16.7039 8.98649C16.5594 11.477 14.6487 12.6273 12.0797 12.6273H3.91239V18.6251H0V0H12.0744C14.8146 0 16.7575 1.47892 16.7575 4.22108V7.26108ZM3.91239 3.59459V9.04297H10.7899C12.1065 9.04297 12.8451 8.41135 12.8451 6.93243V5.67432C12.8451 4.22622 12.1065 3.59459 10.7899 3.59459H3.91239Z" fill="url(#paint0_linear_1070_26884)"/>
<path id="Vector_2" d="M20.3218 14.5735V0H24.2342V12.9303C24.2342 14.44 24.946 15.0408 26.2573 15.0408H35.3933V18.6251H24.9995C22.2592 18.6251 20.3164 17.3105 20.3164 14.5735H20.3218Z" fill="url(#paint1_linear_1070_26884)"/>
<path id="Vector_3" d="M42.5706 13.1203C42.5706 14.3835 43.2557 15.0408 44.7971 15.0408H49.4213C50.9627 15.0408 51.6478 14.3835 51.6478 13.1203V0H55.5602V14.1627C55.5602 16.8176 54.1365 18.6251 51.2785 18.6251H43.0844C40.2317 18.6251 38.6582 16.8176 38.6582 14.1627V0H42.5706V13.1203Z" fill="url(#paint2_linear_1070_26884)"/>
<path id="Vector_4" d="M75.8552 14.5735C75.8552 17.3105 73.9178 18.6251 71.1775 18.6251H63.813C61.0459 18.6251 59.1299 17.3362 59.1299 14.5735V4.22108C59.1299 1.47892 61.0727 0 63.813 0H75.8606V3.59459H65.0707C63.7541 3.59459 63.0423 4.22622 63.0423 5.67432V12.9303C63.0423 14.4092 63.7273 15.0408 65.044 15.0408H69.893C71.2096 15.0408 71.9482 14.4349 71.9482 12.9303V7.28676H75.8606V14.5786L75.8552 14.5735Z" fill="url(#paint3_linear_1070_26884)"/>
</g>
<defs>
<linearGradient id="paint0_linear_1070_26884" x1="-0.561972" y1="9.31" x2="75.0848" y2="9.31" gradientUnits="userSpaceOnUse">
<stop stop-color="#EE3F75"/>
<stop offset="0.51" stop-color="#8E5BA6"/>
<stop offset="1" stop-color="#6DCFF6"/>
</linearGradient>
<linearGradient id="paint1_linear_1070_26884" x1="-0.562181" y1="0" x2="75.0846" y2="0" gradientUnits="userSpaceOnUse">
<stop stop-color="#EE3F75"/>
<stop offset="0.51" stop-color="#8E5BA6"/>
<stop offset="1" stop-color="#6DCFF6"/>
</linearGradient>
<linearGradient id="paint2_linear_1070_26884" x1="-0.562071" y1="0" x2="75.0847" y2="0" gradientUnits="userSpaceOnUse">
<stop stop-color="#EE3F75"/>
<stop offset="0.51" stop-color="#8E5BA6"/>
<stop offset="1" stop-color="#6DCFF6"/>
</linearGradient>
<linearGradient id="paint3_linear_1070_26884" x1="-0.562227" y1="0" x2="75.0845" y2="0" gradientUnits="userSpaceOnUse">
<stop stop-color="#EE3F75"/>
<stop offset="0.51" stop-color="#8E5BA6"/>
<stop offset="1" stop-color="#6DCFF6"/>
</linearGradient>
<clipPath id="clip0_1070_26884">
<rect width="76" height="19" fill="white"/>
</clipPath>
</defs>
</svg>
