<svg width="48" height="12" viewBox="0 0 48 12" fill="none" xmlns="http://www.w3.org/2000/svg">
<g id="logo" clip-path="url(#clip0_1074_29948)">
<path id="Vector" d="M10.5837 4.58595C10.5837 4.82919 10.5668 5.46811 10.5499 5.67567C10.4586 7.24865 9.25183 7.97513 7.6293 7.97513H2.47099V11.7632H0V0H7.62592C9.35662 0 10.5837 0.934054 10.5837 2.66595V4.58595ZM2.47099 2.27027V5.71135H6.81465C7.6462 5.71135 8.11268 5.31243 8.11268 4.37838V3.58378C8.11268 2.66919 7.6462 2.27027 6.81465 2.27027H2.47099Z" fill="#565656"/>
<path id="Vector_2" d="M12.8354 9.20432V0H15.3064V8.16649C15.3064 9.12 15.756 9.49946 16.5841 9.49946H22.3543V11.7632H15.7898C14.0591 11.7632 12.832 10.933 12.832 9.20432H12.8354Z" fill="#565656"/>
<path id="Vector_3" d="M26.887 8.28648C26.887 9.08432 27.3197 9.49946 28.2932 9.49946H31.2138C32.1873 9.49946 32.62 9.08432 32.62 8.28648V0H35.0909V8.94486C35.0909 10.6216 34.1918 11.7632 32.3867 11.7632H27.2115C25.4098 11.7632 24.416 10.6216 24.416 8.94486V0H26.887V8.28648Z" fill="#565656"/>
<path id="Vector_4" d="M47.9091 9.20432C47.9091 10.933 46.6854 11.7632 44.9547 11.7632H40.3034C38.5558 11.7632 37.3457 10.9492 37.3457 9.20432V2.66595C37.3457 0.934054 38.5727 0 40.3034 0H47.9125V2.27027H41.0978C40.2663 2.27027 39.8167 2.66919 39.8167 3.58378V8.16649C39.8167 9.10054 40.2494 9.49946 41.0809 9.49946H44.1434C44.975 9.49946 45.4415 9.11676 45.4415 8.16649V4.60216H47.9125V9.20757L47.9091 9.20432Z" fill="#565656"/>
</g>
<defs>
<clipPath id="clip0_1074_29948">
<rect width="48" height="12" fill="white"/>
</clipPath>
</defs>
</svg>
