<svg width="12" height="12" viewBox="0 0 12 12" fill="none" xmlns="http://www.w3.org/2000/svg">
<circle cx="6" cy="6" r="6" fill="#E55656"/>
<path fill-rule="evenodd" clip-rule="evenodd" d="M5.27638 3.4237C5.26196 3.01281 5.59115 2.67188 6.00228 2.67188C6.41168 2.67188 6.74019 3.01005 6.72833 3.41928L6.63712 6.56448C6.62731 6.90275 6.35027 7.17188 6.01186 7.17188C5.67493 7.17188 5.39853 6.90501 5.38672 6.56829L5.27638 3.4237Z" fill="white"/>
<path fill-rule="evenodd" clip-rule="evenodd" d="M5.25 8.54688C5.25 8.13266 5.58579 7.79688 6 7.79688C6.41421 7.79688 6.75 8.13266 6.75 8.54688C6.75 8.96109 6.41421 9.29688 6 9.29688C5.58579 9.29688 5.25 8.96109 5.25 8.54688Z" fill="white"/>
</svg>
