<svg width="16" height="16" viewBox="0 0 16 16" fill="none" xmlns="http://www.w3.org/2000/svg">
<path fill-rule="evenodd" clip-rule="evenodd" d="M1.33301 7.37891C1.33301 6.82662 1.78072 6.37891 2.33301 6.37891H3.99105V13.9359H2.33301C1.78072 13.9359 1.33301 13.4882 1.33301 12.9359V7.37891Z" fill="#1A1A1A"/>
<path fill-rule="evenodd" clip-rule="evenodd" d="M8.53826 2.13692C8.60477 2.05303 8.71302 2.01399 8.81776 2.03613C9.07873 2.09129 9.26546 2.32161 9.26546 2.58835V6.37933H13.3687C13.8341 6.37933 14.2114 6.75662 14.2114 7.22202C14.2114 7.41455 14.1784 7.60564 14.1139 7.78702L12.3989 12.6068C12.1153 13.4039 11.3607 13.9363 10.5147 13.9363H5.1748V6.37933L8.53826 2.13692Z" fill="#1A1A1A"/>
</svg>
