<svg width="12" height="12" viewBox="0 0 12 12" fill="none" xmlns="http://www.w3.org/2000/svg">
<path fill-rule="evenodd" clip-rule="evenodd" d="M0.166748 5.58191C0.166748 5.02963 0.614463 4.58191 1.16675 4.58191H2.49253V11.1943H1.16675C0.614463 11.1943 0.166748 10.7466 0.166748 10.1943V5.58191Z" fill="#868A8C"/>
<path fill-rule="evenodd" clip-rule="evenodd" d="M6.47159 0.869802C6.52978 0.796399 6.6245 0.762244 6.71615 0.781615V0.781615C6.9445 0.829878 7.10789 1.03141 7.10789 1.26481V4.58191H10.6982C11.1055 4.58191 11.4356 4.91204 11.4356 5.31927V5.31927C11.4356 5.48773 11.4067 5.65494 11.3503 5.81365L9.90881 9.86474C9.62518 10.6619 8.87063 11.1943 8.02454 11.1943H3.52856V4.58191L6.47159 0.869802Z" fill="#868A8C"/>
</svg>
