<svg width="21" height="20" viewBox="0 0 21 20" fill="none" xmlns="http://www.w3.org/2000/svg">
<rect x="2.486" y="2.67887" width="16.028" height="15.8351" rx="1.134" fill="#F9FAFA" stroke="#0F142A" stroke-width="0.972"/>
<path fill-rule="evenodd" clip-rule="evenodd" d="M6.48094 9.74023C6.03893 9.74023 5.6806 10.0986 5.6806 10.5406C5.6806 10.9826 6.03893 11.3409 6.48094 11.3409H6.49931C6.94133 11.3409 7.29965 10.9826 7.29965 10.5406C7.29965 10.0986 6.94133 9.74023 6.49931 9.74023H6.48094ZM6.48094 13.7419C6.03893 13.7419 5.6806 14.1003 5.6806 14.5423C5.6806 14.9843 6.03893 15.3426 6.48094 15.3426H6.49931C6.94133 15.3426 7.29965 14.9843 7.29965 14.5423C7.29965 14.1003 6.94133 13.7419 6.49931 13.7419H6.48094ZM9.72822 10.5406C9.72822 10.0986 10.0865 9.74023 10.5286 9.74023H10.5469C10.9889 9.74023 11.3473 10.0986 11.3473 10.5406C11.3473 10.9826 10.9889 11.3409 10.5469 11.3409H10.5286C10.0865 11.3409 9.72822 10.9826 9.72822 10.5406ZM10.5286 13.7419C10.0865 13.7419 9.72822 14.1003 9.72822 14.5423C9.72822 14.9843 10.0865 15.3426 10.5286 15.3426H10.5469C10.9889 15.3426 11.3473 14.9843 11.3473 14.5423C11.3473 14.1003 10.9889 13.7419 10.5469 13.7419H10.5286ZM13.7758 10.5406C13.7758 10.0986 14.1342 9.74023 14.5762 9.74023H14.5946C15.0366 9.74023 15.3949 10.0986 15.3949 10.5406C15.3949 10.9826 15.0366 11.3409 14.5945 11.3409H14.5762C14.1342 11.3409 13.7758 10.9826 13.7758 10.5406ZM14.5762 13.7419C14.1342 13.7419 13.7758 14.1003 13.7758 14.5423C13.7758 14.9843 14.1342 15.3426 14.5762 15.3426H14.5945C15.0366 15.3426 15.3949 14.9843 15.3949 14.5423C15.3949 14.1003 15.0366 13.7419 14.5946 13.7419H14.5762Z" fill="#0F142A"/>
<path fill-rule="evenodd" clip-rule="evenodd" d="M6.44035 1V4.17615V1Z" fill="#F9FAFA"/>
<path d="M6.44035 1V4.17615" stroke="#0F142A" stroke-width="0.972"/>
<path fill-rule="evenodd" clip-rule="evenodd" d="M14.5356 1V4.17615V1Z" fill="#F9FAFA"/>
<path d="M14.5356 1V4.17615" stroke="#0F142A" stroke-width="0.972"/>
<path fill-rule="evenodd" clip-rule="evenodd" d="M2.89313 6.50173H18.2448H2.89313Z" fill="#F9FAFA"/>
<path d="M2.89313 6.50173H18.2448" stroke="#0F142A" stroke-width="0.972"/>
</svg>
