<svg width="20" height="20" viewBox="0 0 20 20" fill="none" xmlns="http://www.w3.org/2000/svg">
<mask id="mask0_77_51574" style="mask-type:alpha" maskUnits="userSpaceOnUse" x="0" y="0" width="20" height="20">
<rect width="20" height="20" fill="#D9D9D9"/>
</mask>
<g mask="url(#mask0_77_51574)">
<path d="M8.26795 2C9.03775 0.666667 10.9623 0.666667 11.7321 2L18.6603 14C19.4301 15.3333 18.4678 17 16.9282 17H3.0718C1.5322 17 0.569946 15.3333 1.33975 14L8.26795 2Z" fill="#FF6B65"/>
<path fill-rule="evenodd" clip-rule="evenodd" d="M10.0002 4.79297C9.5431 4.79297 9.17258 5.16349 9.17258 5.62055V10.5861C9.17258 11.0431 9.5431 11.4137 10.0002 11.4137C10.4572 11.4137 10.8278 11.0431 10.8278 10.5861V5.62056C10.8278 5.16349 10.4572 4.79297 10.0002 4.79297ZM10.0002 15.1378C10.6858 15.1378 11.2415 14.582 11.2415 13.8964C11.2415 13.2108 10.6858 12.655 10.0002 12.655C9.31457 12.655 8.75879 13.2108 8.75879 13.8964C8.75879 14.582 9.31457 15.1378 10.0002 15.1378Z" fill="white"/>
</g>
</svg>
