<svg width="20" height="21" viewBox="0 0 20 21" fill="none" xmlns="http://www.w3.org/2000/svg">
<mask id="path-1-inside-1_507_6642" fill="white">
<path fill-rule="evenodd" clip-rule="evenodd" d="M17.3273 10.9165C17.1417 10.7461 17 10.616 17 10.5C17 9.60875 16.0301 8.7564 15.138 7.97238C14.6225 7.5193 14.1329 7.08904 13.8715 6.68728C12.6231 4.76864 10.4597 3.5 8 3.5C4.13401 3.5 1 6.63401 1 10.5C1 11.7837 1.34553 12.9866 1.94864 14.021L1.26905 16.1556C1.08016 16.7489 1.6116 17.3211 2.21721 17.1764L4.58363 16.6111C5.59412 17.1773 6.75937 17.5 8 17.5C9.31967 17.5 10.554 17.1348 11.6076 16.5C12.3583 16.0477 13.177 16.4446 13.8765 16.7837C14.6423 17.155 15.2653 17.457 15.5 16.5C19.494 12.9054 18.0643 11.593 17.3273 10.9165Z"/>
</mask>
<path d="M17.3273 10.9165L18.2064 9.95876L18.2064 9.95876L17.3273 10.9165ZM15.138 7.97238L15.9962 6.99589L15.9962 6.99589L15.138 7.97238ZM13.8715 6.68728L14.9611 5.97826V5.97826L13.8715 6.68728ZM1.94864 14.021L3.18738 14.4153L3.36258 13.865L3.07167 13.3661L1.94864 14.021ZM1.26905 16.1556L2.50778 16.55H2.50778L1.26905 16.1556ZM2.21721 17.1764L2.51925 18.4408L2.21721 17.1764ZM4.58363 16.6111L5.21902 15.477L4.77577 15.2287L4.2816 15.3467L4.58363 16.6111ZM11.6076 16.5L10.9367 15.3865L11.6076 16.5ZM13.8765 16.7837L14.4437 15.6139H14.4437L13.8765 16.7837ZM15.5 16.5L14.6303 15.5337L14.3328 15.8015L14.2374 16.1904L15.5 16.5ZM15.7 10.5C15.7 11.0592 16.0209 11.4335 16.1075 11.5344C16.2277 11.6745 16.3755 11.8074 16.4482 11.8742L18.2064 9.95876C18.1572 9.91357 18.1259 9.88472 18.1001 9.85987C18.074 9.83474 18.0718 9.83095 18.0806 9.84124C18.0868 9.84849 18.1319 9.90072 18.1788 9.99103C18.227 10.0838 18.3 10.2611 18.3 10.5H15.7ZM14.2799 8.94887C14.7442 9.35698 15.129 9.69898 15.4071 10.0309C15.7004 10.3809 15.7 10.5192 15.7 10.5H18.3C18.3 9.58953 17.8147 8.85602 17.4 8.3611C16.9701 7.84798 16.424 7.3718 15.9962 6.99589L14.2799 8.94887ZM12.7819 7.39629C13.1634 7.98261 13.819 8.5438 14.2799 8.94887L15.9962 6.99589C15.4261 6.4948 15.1025 6.19546 14.9611 5.97826L12.7819 7.39629ZM8 4.8C10.0016 4.8 11.7631 5.83064 12.7819 7.39629L14.9611 5.97826C13.483 3.70663 10.9178 2.2 8 2.2V4.8ZM2.3 10.5C2.3 7.35198 4.85198 4.8 8 4.8V2.2C3.41604 2.2 -0.3 5.91604 -0.3 10.5H2.3ZM3.07167 13.3661C2.58132 12.5252 2.3 11.5474 2.3 10.5H-0.3C-0.3 12.0199 0.109736 13.4481 0.825619 14.6758L3.07167 13.3661ZM2.50778 16.55L3.18738 14.4153L0.709907 13.6266L0.0303077 15.7612L2.50778 16.55ZM1.91518 15.912C2.29368 15.8216 2.62584 16.1792 2.50778 16.55L0.0303077 15.7612C-0.465526 17.3187 0.929523 18.8206 2.51925 18.4408L1.91518 15.912ZM4.2816 15.3467L1.91518 15.912L2.51925 18.4408L4.88566 17.8756L4.2816 15.3467ZM8 16.2C6.98756 16.2 6.04042 15.9372 5.21902 15.477L3.94824 17.7453C5.14781 18.4173 6.53118 18.8 8 18.8V16.2ZM10.9367 15.3865C10.0799 15.9027 9.07667 16.2 8 16.2V18.8C9.56266 18.8 11.0281 18.3669 12.2785 17.6135L10.9367 15.3865ZM14.4437 15.6139C14.1217 15.4579 13.603 15.1994 13.0411 15.0755C12.4348 14.9419 11.6776 14.9401 10.9367 15.3865L12.2785 17.6135C12.2883 17.6076 12.3158 17.5781 12.4814 17.6146C12.6915 17.6609 12.9318 17.7704 13.3094 17.9535L14.4437 15.6139ZM14.2374 16.1904C14.2087 16.3076 14.2086 16.2045 14.349 16.068C14.4257 15.9935 14.5244 15.9291 14.6379 15.8876C14.7473 15.8475 14.8402 15.8395 14.898 15.84C14.9909 15.8407 15.0069 15.8635 14.8887 15.8179C14.779 15.7755 14.6477 15.7128 14.4437 15.6139L13.3094 17.9535C13.4883 18.0402 13.722 18.1545 13.9519 18.2433C14.1732 18.3288 14.5032 18.4369 14.8768 18.4399C15.3004 18.4434 15.7732 18.3094 16.161 17.9326C16.5082 17.5952 16.674 17.1709 16.7626 16.8096L14.2374 16.1904ZM16.4482 11.8742C16.8366 12.2307 16.901 12.3481 16.8899 12.5391C16.8717 12.8558 16.5808 13.7784 14.6303 15.5337L16.3697 17.4663C18.4133 15.627 19.4045 14.0961 19.4856 12.6888C19.574 11.1558 18.555 10.2787 18.2064 9.95876L16.4482 11.8742Z" fill="#3190FF" mask="url(#path-1-inside-1_507_6642)"/>
<mask id="path-3-inside-2_507_6642" fill="white">
<path fill-rule="evenodd" clip-rule="evenodd" d="M13 5.5C16.866 5.5 20 8.63401 20 12.5C20 13.7406 19.6773 14.9059 19.1111 15.9164L19.6764 18.2828C19.8211 18.8884 19.2489 19.4198 18.6556 19.231L16.521 18.5514C15.4866 19.1545 14.2837 19.5 13 19.5C9.13401 19.5 6 16.366 6 12.5C6 8.63401 9.13401 5.5 13 5.5ZM10.5498 13.2C10.964 13.2 11.2998 12.8642 11.2998 12.45C11.2998 12.0358 10.964 11.7 10.5498 11.7C10.1356 11.7 9.7998 12.0358 9.7998 12.45C9.7998 12.8642 10.1356 13.2 10.5498 13.2ZM13.7998 12.45C13.7998 12.8642 13.464 13.2 13.0498 13.2C12.6356 13.2 12.2998 12.8642 12.2998 12.45C12.2998 12.0358 12.6356 11.7 13.0498 11.7C13.464 11.7 13.7998 12.0358 13.7998 12.45ZM15.5498 13.2C15.964 13.2 16.2998 12.8642 16.2998 12.45C16.2998 12.0358 15.964 11.7 15.5498 11.7C15.1356 11.7 14.7998 12.0358 14.7998 12.45C14.7998 12.8642 15.1356 13.2 15.5498 13.2Z"/>
</mask>
<path fill-rule="evenodd" clip-rule="evenodd" d="M13 5.5C16.866 5.5 20 8.63401 20 12.5C20 13.7406 19.6773 14.9059 19.1111 15.9164L19.6764 18.2828C19.8211 18.8884 19.2489 19.4198 18.6556 19.231L16.521 18.5514C15.4866 19.1545 14.2837 19.5 13 19.5C9.13401 19.5 6 16.366 6 12.5C6 8.63401 9.13401 5.5 13 5.5ZM10.5498 13.2C10.964 13.2 11.2998 12.8642 11.2998 12.45C11.2998 12.0358 10.964 11.7 10.5498 11.7C10.1356 11.7 9.7998 12.0358 9.7998 12.45C9.7998 12.8642 10.1356 13.2 10.5498 13.2ZM13.7998 12.45C13.7998 12.8642 13.464 13.2 13.0498 13.2C12.6356 13.2 12.2998 12.8642 12.2998 12.45C12.2998 12.0358 12.6356 11.7 13.0498 11.7C13.464 11.7 13.7998 12.0358 13.7998 12.45ZM15.5498 13.2C15.964 13.2 16.2998 12.8642 16.2998 12.45C16.2998 12.0358 15.964 11.7 15.5498 11.7C15.1356 11.7 14.7998 12.0358 14.7998 12.45C14.7998 12.8642 15.1356 13.2 15.5498 13.2Z" fill="#3190FF"/>
<path d="M19.1111 15.9164L18.2387 15.4276L18.0477 15.7686L18.1385 16.1487L19.1111 15.9164ZM19.6764 18.2828L20.649 18.0505L19.6764 18.2828ZM18.6556 19.231L18.959 18.2781L18.6556 19.231ZM16.521 18.5514L16.8243 17.5985L16.401 17.4637L16.0172 17.6875L16.521 18.5514ZM21 12.5C21 8.08172 17.4183 4.5 13 4.5V6.5C16.3137 6.5 19 9.18629 19 12.5H21ZM19.9836 16.4051C20.6312 15.2492 21 13.9162 21 12.5H19C19 13.5651 18.7233 14.5626 18.2387 15.4276L19.9836 16.4051ZM20.649 18.0505L20.0838 15.684L18.1385 16.1487L18.7038 18.5151L20.649 18.0505ZM18.3522 20.1838C19.6872 20.6088 20.9745 19.4131 20.649 18.0505L18.7038 18.5151C18.6676 18.3637 18.8106 18.2309 18.959 18.2781L18.3522 20.1838ZM16.2176 19.5042L18.3522 20.1838L18.959 18.2781L16.8243 17.5985L16.2176 19.5042ZM13 20.5C14.4654 20.5 15.8416 20.1051 17.0247 19.4152L16.0172 17.6875C15.1317 18.2039 14.1019 18.5 13 18.5V20.5ZM5 12.5C5 16.9183 8.58172 20.5 13 20.5V18.5C9.68629 18.5 7 15.8137 7 12.5H5ZM13 4.5C8.58172 4.5 5 8.08172 5 12.5H7C7 9.18629 9.68629 6.5 13 6.5V4.5ZM10.2998 12.45C10.2998 12.3119 10.4117 12.2 10.5498 12.2V14.2C11.5163 14.2 12.2998 13.4165 12.2998 12.45H10.2998ZM10.5498 12.7C10.4117 12.7 10.2998 12.5881 10.2998 12.45H12.2998C12.2998 11.4835 11.5163 10.7 10.5498 10.7V12.7ZM10.7998 12.45C10.7998 12.5881 10.6879 12.7 10.5498 12.7V10.7C9.58331 10.7 8.7998 11.4835 8.7998 12.45H10.7998ZM10.5498 12.2C10.6879 12.2 10.7998 12.3119 10.7998 12.45H8.7998C8.7998 13.4165 9.58331 14.2 10.5498 14.2V12.2ZM13.0498 14.2C14.0163 14.2 14.7998 13.4165 14.7998 12.45H12.7998C12.7998 12.3119 12.9117 12.2 13.0498 12.2V14.2ZM11.2998 12.45C11.2998 13.4165 12.0833 14.2 13.0498 14.2V12.2C13.1879 12.2 13.2998 12.3119 13.2998 12.45H11.2998ZM13.0498 10.7C12.0833 10.7 11.2998 11.4835 11.2998 12.45H13.2998C13.2998 12.5881 13.1879 12.7 13.0498 12.7V10.7ZM14.7998 12.45C14.7998 11.4835 14.0163 10.7 13.0498 10.7V12.7C12.9117 12.7 12.7998 12.5881 12.7998 12.45H14.7998ZM15.2998 12.45C15.2998 12.3119 15.4117 12.2 15.5498 12.2V14.2C16.5163 14.2 17.2998 13.4165 17.2998 12.45H15.2998ZM15.5498 12.7C15.4117 12.7 15.2998 12.5881 15.2998 12.45H17.2998C17.2998 11.4835 16.5163 10.7 15.5498 10.7V12.7ZM15.7998 12.45C15.7998 12.5881 15.6879 12.7 15.5498 12.7V10.7C14.5833 10.7 13.7998 11.4835 13.7998 12.45H15.7998ZM15.5498 12.2C15.6879 12.2 15.7998 12.3119 15.7998 12.45H13.7998C13.7998 13.4165 14.5833 14.2 15.5498 14.2V12.2Z" fill="#3190FF" mask="url(#path-3-inside-2_507_6642)"/>
</svg>
