<svg width="24" height="24" viewBox="0 0 24 24" fill="none" xmlns="http://www.w3.org/2000/svg">
<rect opacity="0.01" width="24" height="24" fill="white"/>
<path fill-rule="evenodd" clip-rule="evenodd" d="M12 21C16.9706 21 21 16.9706 21 12C21 7.02944 16.9706 3 12 3C7.02944 3 3 7.02944 3 12C3 16.9706 7.02944 21 12 21ZM14.7939 8.71028C14.9537 8.55052 15.2127 8.55052 15.3725 8.71028C15.5322 8.87004 15.5322 9.12906 15.3725 9.28882L12.4798 12.1815L15.3725 15.0742C15.5322 15.234 15.5322 15.493 15.3725 15.6528C15.2127 15.8125 14.9537 15.8125 14.7939 15.6528L11.9012 12.7601L9.00851 15.6528C8.84875 15.8125 8.58973 15.8125 8.42997 15.6528C8.27021 15.493 8.27021 15.234 8.42997 15.0742L11.3227 12.1815L8.42997 9.28882C8.27021 9.12906 8.27021 8.87004 8.42997 8.71028C8.58973 8.55052 8.84875 8.55052 9.00851 8.71028L11.9012 11.603L14.7939 8.71028Z" fill="#A6B1BD"/>
</svg>
