<svg width="16" height="14" viewBox="0 0 16 14" fill="none" xmlns="http://www.w3.org/2000/svg">
<mask id="path-1-inside-1_63_42801" fill="white">
<path fill-rule="evenodd" clip-rule="evenodd" d="M5.83934 0C2.61436 0 0 2.61437 0 5.83935C0 9.06433 2.61436 11.6787 5.83934 11.6787H6.62207L7.67177 13.7219C7.86008 14.0884 8.38406 14.0884 8.57237 13.7219L9.62207 11.6787H10.1607C13.3856 11.6787 16 9.06433 16 5.83935C16 2.61437 13.3856 0 10.1607 0H5.83934Z"/>
</mask>
<path fill-rule="evenodd" clip-rule="evenodd" d="M5.83934 0C2.61436 0 0 2.61437 0 5.83935C0 9.06433 2.61436 11.6787 5.83934 11.6787H6.62207L7.67177 13.7219C7.86008 14.0884 8.38406 14.0884 8.57237 13.7219L9.62207 11.6787H10.1607C13.3856 11.6787 16 9.06433 16 5.83935C16 2.61437 13.3856 0 10.1607 0H5.83934Z" fill="white" fill-opacity="0.01"/>
<path d="M6.62207 11.6787L7.52267 11.216L7.2402 10.6662H6.62207V11.6787ZM7.67177 13.7219L8.57237 13.2592L7.67177 13.7219ZM8.57237 13.7219L9.47297 14.1846V14.1846L8.57237 13.7219ZM9.62207 11.6787V10.6662H9.00394L8.72147 11.216L9.62207 11.6787ZM1.0125 5.83935C1.0125 3.17355 3.17355 1.0125 5.83934 1.0125V-1.0125C2.05518 -1.0125 -1.0125 2.05518 -1.0125 5.83935H1.0125ZM5.83934 10.6662C3.17355 10.6662 1.0125 8.50514 1.0125 5.83935H-1.0125C-1.0125 9.62352 2.05518 12.6912 5.83934 12.6912V10.6662ZM6.62207 10.6662H5.83934V12.6912H6.62207V10.6662ZM5.72147 12.1414L6.77117 14.1846L8.57237 13.2592L7.52267 11.216L5.72147 12.1414ZM6.77117 14.1846C7.33611 15.2842 8.90803 15.2842 9.47297 14.1846L7.67177 13.2592C7.86009 12.8927 8.38406 12.8927 8.57237 13.2592L6.77117 14.1846ZM9.47297 14.1846L10.5227 12.1414L8.72147 11.216L7.67177 13.2592L9.47297 14.1846ZM10.1607 10.6662H9.62207V12.6912H10.1607V10.6662ZM14.9875 5.83935C14.9875 8.50514 12.8264 10.6662 10.1607 10.6662V12.6912C13.9448 12.6912 17.0125 9.62352 17.0125 5.83935H14.9875ZM10.1607 1.0125C12.8264 1.0125 14.9875 3.17355 14.9875 5.83935H17.0125C17.0125 2.05518 13.9448 -1.0125 10.1607 -1.0125V1.0125ZM5.83934 1.0125H10.1607V-1.0125H5.83934V1.0125Z" fill="#FF6B65" mask="url(#path-1-inside-1_63_42801)"/>
<ellipse cx="5.02539" cy="5.70184" rx="0.75" ry="0.729918" fill="#FF6B65"/>
<ellipse cx="8.02539" cy="5.70184" rx="0.75" ry="0.729918" fill="#FF6B65"/>
<ellipse cx="11.0254" cy="5.70184" rx="0.75" ry="0.729918" fill="#FF6B65"/>
</svg>
