<svg width="32" height="32" viewBox="0 0 32 32" fill="none" xmlns="http://www.w3.org/2000/svg">
<rect width="32" height="32" fill="white"/>
<rect width="32" height="32" fill="white" fill-opacity="0.01"/>
<path d="M5.58709 19.0085L6.14243 19.2485C6.2144 19.082 6.20787 18.892 6.12464 18.7308L5.58709 19.0085ZM4.04652 22.5723L3.49118 22.3322H3.49118L4.04652 22.5723ZM4.61279 23.2509L4.74957 23.8402H4.74957L4.61279 23.2509ZM8.5572 22.3355L8.89397 21.8329C8.75492 21.7397 8.58347 21.7083 8.42042 21.7461L8.5572 22.3355ZM21.8156 14.9189C21.8156 19.511 18.0961 23.2328 13.5089 23.2328V24.4428C18.7653 24.4428 23.0256 20.1784 23.0256 14.9189H21.8156ZM13.5089 6.605C18.0961 6.605 21.8156 10.3268 21.8156 14.9189H23.0256C23.0256 9.65946 18.7653 5.395 13.5089 5.395V6.605ZM5.20215 14.9189C5.20215 10.3268 8.92166 6.605 13.5089 6.605V5.395C8.25248 5.395 3.99215 9.65946 3.99215 14.9189H5.20215ZM6.12464 18.7308C5.53528 17.5897 5.20215 16.2941 5.20215 14.9189H3.99215C3.99215 16.4918 4.37361 17.9773 5.04955 19.2861L6.12464 18.7308ZM4.60185 22.8124L6.14243 19.2485L5.03176 18.7684L3.49118 22.3322L4.60185 22.8124ZM4.47602 22.6616C4.56394 22.6412 4.63767 22.7295 4.60185 22.8124L3.49118 22.3322C3.133 23.1608 3.87026 24.0443 4.74957 23.8402L4.47602 22.6616ZM8.42042 21.7461L4.47602 22.6616L4.74957 23.8402L8.69397 22.9248L8.42042 21.7461ZM13.5089 23.2328C11.8002 23.2328 10.2137 22.7171 8.89397 21.8329L8.22042 22.8381C9.73313 23.8517 11.5529 24.4428 13.5089 24.4428V23.2328Z" fill="#5A5C5E"/>
<path fill-rule="evenodd" clip-rule="evenodd" d="M21.6467 26.0001C17.8833 26.0001 14.8324 22.975 14.8324 19.2433C14.8324 15.5117 17.8833 12.4866 21.6467 12.4866C25.4101 12.4866 28.4609 15.5117 28.4609 19.2433C28.4609 20.349 28.1931 21.3927 27.7182 22.3141L28.9537 24.8368C29.103 25.1416 28.8247 25.4807 28.4966 25.3937L25.7227 24.6585C24.586 25.5011 23.1751 26.0001 21.6467 26.0001Z" fill="white"/>
<path d="M27.7182 22.3141L27.1748 22.5802C27.0907 22.4084 27.0928 22.2069 27.1804 22.0369L27.7182 22.3141ZM28.9537 24.8368L29.4971 24.5707H29.4971L28.9537 24.8368ZM28.4966 25.3937L28.6516 24.8089L28.6516 24.8089L28.4966 25.3937ZM25.7227 24.6585L25.3625 24.1725C25.5103 24.0629 25.6999 24.0266 25.8777 24.0737L25.7227 24.6585ZM15.4374 19.2433C15.4374 22.636 18.2126 25.3951 21.6467 25.3951V26.6051C17.554 26.6051 14.2274 23.3139 14.2274 19.2433H15.4374ZM21.6467 13.0916C18.2126 13.0916 15.4374 15.8506 15.4374 19.2433H14.2274C14.2274 15.1727 17.554 11.8816 21.6467 11.8816V13.0916ZM27.8559 19.2433C27.8559 15.8506 25.0808 13.0916 21.6467 13.0916V11.8816C25.7394 11.8816 29.0659 15.1727 29.0659 19.2433H27.8559ZM27.1804 22.0369C27.6122 21.1991 27.8559 20.2502 27.8559 19.2433H29.0659C29.0659 20.4479 28.7739 21.5863 28.2559 22.5912L27.1804 22.0369ZM28.4104 25.1029L27.1748 22.5802L28.2615 22.0479L29.4971 24.5707L28.4104 25.1029ZM28.6516 24.8089C28.4785 24.763 28.3316 24.942 28.4104 25.1029L29.4971 24.5707C29.8745 25.3412 29.171 26.1984 28.3416 25.9785L28.6516 24.8089ZM25.8777 24.0737L28.6516 24.8089L28.3416 25.9785L25.5677 25.2433L25.8777 24.0737ZM21.6467 25.3951C23.0414 25.3951 24.3267 24.9402 25.3625 24.1725L26.083 25.1445C24.8453 26.062 23.3088 26.6051 21.6467 26.6051V25.3951Z" fill="#5A5C5E"/>
<ellipse cx="18.898" cy="19.2432" rx="0.813017" ry="0.810811" fill="#5A5C5E"/>
<ellipse cx="24.3179" cy="19.2432" rx="0.813017" ry="0.810811" fill="#5A5C5E"/>
<ellipse cx="21.6079" cy="19.2432" rx="0.813017" ry="0.810811" fill="#5A5C5E"/>
</svg>
