<svg width="32" height="32" viewBox="0 0 32 32" fill="none" xmlns="http://www.w3.org/2000/svg">
<rect width="32" height="32" fill="white"/>
<rect width="32" height="32" fill="white" fill-opacity="0.01"/>
<path fill-rule="evenodd" clip-rule="evenodd" d="M13.5089 23.8378C18.4307 23.8378 22.4206 19.8447 22.4206 14.9189C22.4206 9.99314 18.4307 6 13.5089 6C8.58707 6 4.59715 9.99314 4.59715 14.9189C4.59715 16.393 4.95444 17.7835 5.58709 19.0085L4.04652 22.5723C3.88534 22.9452 4.2171 23.3427 4.61279 23.2509L8.5572 22.3355C9.97342 23.2844 11.6766 23.8378 13.5089 23.8378Z" fill="#1A1A1A"/>
<path fill-rule="evenodd" clip-rule="evenodd" d="M21.6467 26.0001C17.8833 26.0001 14.8324 22.975 14.8324 19.2433C14.8324 15.5117 17.8833 12.4866 21.6467 12.4866C25.4101 12.4866 28.4609 15.5117 28.4609 19.2433C28.4609 20.349 28.1931 21.3927 27.7182 22.3141L28.9537 24.8368C29.103 25.1416 28.8247 25.4807 28.4966 25.3937L25.7227 24.6585C24.586 25.5011 23.1751 26.0001 21.6467 26.0001Z" fill="#1A1A1A"/>
<path d="M27.7182 22.3141L27.2242 22.556L27.1027 22.3077L27.2293 22.0621L27.7182 22.3141ZM28.9537 24.8368L29.4477 24.5949H29.4477L28.9537 24.8368ZM28.4966 25.3937L28.6376 24.8621H28.6376L28.4966 25.3937ZM25.7227 24.6585L25.3952 24.2167L25.6078 24.0591L25.8636 24.1269L25.7227 24.6585ZM15.3824 19.2433C15.3824 22.6668 18.1826 25.4501 21.6467 25.4501V26.5501C17.5839 26.5501 14.2824 23.2831 14.2824 19.2433H15.3824ZM21.6467 13.0366C18.1826 13.0366 15.3824 15.8198 15.3824 19.2433H14.2824C14.2824 15.2035 17.5839 11.9366 21.6467 11.9366V13.0366ZM27.9109 19.2433C27.9109 15.8198 25.1107 13.0366 21.6467 13.0366V11.9366C25.7094 11.9366 29.0109 15.2035 29.0109 19.2433H27.9109ZM27.2293 22.0621C27.665 21.2167 27.9109 20.2592 27.9109 19.2433H29.0109C29.0109 20.4389 28.7211 21.5687 28.2071 22.566L27.2293 22.0621ZM28.4598 25.0787L27.2242 22.556L28.2121 22.0721L29.4477 24.5949L28.4598 25.0787ZM28.6376 24.8621C28.51 24.8283 28.4017 24.9601 28.4598 25.0787L29.4477 24.5949C29.8043 25.323 29.1395 26.1331 28.3557 25.9254L28.6376 24.8621ZM25.8636 24.1269L28.6376 24.8621L28.3557 25.9254L25.5818 25.1902L25.8636 24.1269ZM21.6467 25.4501C23.0535 25.4501 24.3503 24.9912 25.3952 24.2167L26.0503 25.1004C24.8217 26.011 23.2967 26.5501 21.6467 26.5501V25.4501Z" fill="white"/>
<ellipse cx="18.898" cy="19.2432" rx="0.813017" ry="0.810811" fill="white"/>
<ellipse cx="24.3179" cy="19.2432" rx="0.813017" ry="0.810811" fill="white"/>
<ellipse cx="21.6079" cy="19.2432" rx="0.813017" ry="0.810811" fill="white"/>
</svg>
