<svg width="32" height="32" viewBox="0 0 32 32" fill="none" xmlns="http://www.w3.org/2000/svg">
<rect width="32" height="32" fill="white"/>
<rect width="32" height="32" fill="white" fill-opacity="0.01"/>
<rect x="3" y="8.09448" width="12.2945" height="12.3551" rx="2.2" transform="rotate(-17 3 8.09448)" fill="white" stroke="#5A5C5E" stroke-width="1.21" stroke-linejoin="round"/>
<ellipse cx="8.99533" cy="14.9391" rx="1.09772" ry="1.10313" transform="rotate(-17 8.99533 14.9391)" fill="#5A5C5E"/>
<ellipse cx="12.2844" cy="9.17784" rx="1.09772" ry="1.10313" transform="rotate(-17 12.2844 9.17784)" fill="#5A5C5E"/>
<ellipse cx="10.6545" cy="12.1065" rx="1.09772" ry="1.10313" transform="rotate(-17 10.6545 12.1065)" fill="#5A5C5E"/>
<rect x="13.4785" y="12.8896" width="14.5299" height="14.6015" rx="2.2" fill="white" stroke="#5A5C5E" stroke-width="1.21" stroke-linejoin="round"/>
<ellipse cx="17.6695" cy="17.3419" rx="1.09533" ry="1.10073" fill="#5A5C5E"/>
<ellipse cx="17.6695" cy="23.1298" rx="1.09533" ry="1.10073" fill="#5A5C5E"/>
<ellipse cx="23.817" cy="17.3419" rx="1.09533" ry="1.10073" fill="#5A5C5E"/>
<ellipse cx="23.817" cy="23.1298" rx="1.09533" ry="1.10073" fill="#5A5C5E"/>
<ellipse cx="20.7438" cy="20.3002" rx="1.09533" ry="1.10073" fill="#5A5C5E"/>
</svg>
