<svg width="20" height="20" viewBox="0 0 20 20" fill="none" xmlns="http://www.w3.org/2000/svg">
<rect width="20" height="19.5182" fill="white" fill-opacity="0.01"/>
<mask id="path-2-inside-1_170_39033" fill="white">
<path fill-rule="evenodd" clip-rule="evenodd" d="M10.0001 4.06628C6.23023 4.06628 2.99695 6.41497 1.62402 9.75909C2.99695 13.1032 6.23023 15.4519 10.0001 15.4519C13.77 15.4519 17.0033 13.1032 18.3762 9.75909C17.0033 6.41498 13.77 4.06628 10.0001 4.06628ZM10.0002 11.9099C11.2346 11.9099 12.2352 10.9351 12.2352 9.7326C12.2352 8.53011 11.2346 7.55529 10.0002 7.55529C8.76592 7.55529 7.76531 8.53011 7.76531 9.7326C7.76531 10.9351 8.76592 11.9099 10.0002 11.9099Z"/>
</mask>
<path d="M1.62402 9.75909L0.421429 9.26536C0.291555 9.5817 0.291555 9.93647 0.421429 10.2528L1.62402 9.75909ZM18.3762 9.75909L19.5788 10.2528C19.7087 9.93648 19.7087 9.5817 19.5788 9.26536L18.3762 9.75909ZM2.82662 10.2528C4.01146 7.36684 6.78883 5.36628 10.0001 5.36628V2.76628C5.67164 2.76628 1.98245 5.4631 0.421429 9.26536L2.82662 10.2528ZM10.0001 14.1519C6.78883 14.1519 4.01146 12.1513 2.82662 9.26536L0.421429 10.2528C1.98245 14.0551 5.67164 16.7519 10.0001 16.7519V14.1519ZM17.1736 9.26536C15.9888 12.1513 13.2114 14.1519 10.0001 14.1519V16.7519C14.3286 16.7519 18.0178 14.0551 19.5788 10.2528L17.1736 9.26536ZM10.0001 5.36628C13.2114 5.36628 15.9888 7.36685 17.1736 10.2528L19.5788 9.26536C18.0178 5.46311 14.3286 2.76628 10.0001 2.76628V5.36628ZM10.9352 9.7326C10.9352 10.1853 10.5488 10.6099 10.0002 10.6099V13.2099C11.9203 13.2099 13.5352 11.6849 13.5352 9.7326H10.9352ZM10.0002 8.85529C10.5488 8.85529 10.9352 9.27988 10.9352 9.7326H13.5352C13.5352 7.78034 11.9203 6.25529 10.0002 6.25529V8.85529ZM9.06531 9.7326C9.06531 9.27988 9.45168 8.85529 10.0002 8.85529V6.25529C8.08017 6.25529 6.46531 7.78034 6.46531 9.7326H9.06531ZM10.0002 10.6099C9.45168 10.6099 9.06531 10.1853 9.06531 9.7326H6.46531C6.46531 11.6849 8.08017 13.2099 10.0002 13.2099V10.6099Z" fill="#858A8C" mask="url(#path-2-inside-1_170_39033)"/>
</svg>
