<svg width="24" height="25" viewBox="0 0 24 25" fill="none" xmlns="http://www.w3.org/2000/svg">
<rect width="24" height="24" fill="white" fill-opacity="0.01"/>
<g clip-path="url(#clip0_63_39167)">
<path fill-rule="evenodd" clip-rule="evenodd" d="M23.1427 13.461C21.2454 17.6661 16.9699 20.5979 11.9996 20.5979C10.4335 20.5979 8.93629 20.3068 7.56079 19.7765L9.08811 17.7062C9.86856 18.2136 10.8035 18.509 11.8085 18.509C14.5401 18.509 16.7545 16.3268 16.7545 13.6349C16.7545 12.094 16.029 10.7201 14.8962 9.82691L16.7737 7.27998C19.6088 8.47053 21.8926 10.6893 23.1427 13.461ZM11.9996 6.32361C13.1745 6.32361 14.3105 6.48742 15.3855 6.79314L13.6718 9.11839C13.0967 8.88776 12.4677 8.76069 11.8085 8.76069C9.07693 8.76069 6.86253 10.9429 6.86253 13.6349C6.86253 14.8315 7.30013 15.9275 8.02624 16.7758L6.25168 19.1811C3.86936 17.9232 1.96059 15.9078 0.856934 13.4615C2.75319 9.25594 7.02891 6.32361 11.9996 6.32361Z" fill="#A6B1BD"/>
<path fill-rule="evenodd" clip-rule="evenodd" d="M16.5734 4.0761C16.8847 4.29901 16.9564 4.73211 16.7335 5.04345C16.7316 5.04607 16.7297 5.04867 16.7278 5.05126L4.8952 21.1009C4.66385 21.4147 4.22336 21.4845 3.90638 21.2575C3.59504 21.0346 3.52336 20.6015 3.74627 20.2902C3.74814 20.2876 3.75003 20.285 3.75194 20.2824L15.5846 4.2327C15.8159 3.9189 16.2564 3.84914 16.5734 4.0761Z" fill="#A6B1BD"/>
</g>
<defs>
<clipPath id="clip0_63_39167">
<rect width="24" height="24" fill="white" transform="translate(0 1)"/>
</clipPath>
</defs>
</svg>
