<svg width="16" height="16" viewBox="0 0 16 16" fill="none" xmlns="http://www.w3.org/2000/svg">
<circle cx="8" cy="8" r="8" fill="#E55656"/>
<path fill-rule="evenodd" clip-rule="evenodd" d="M7.03517 4.56509C7.01595 4.01724 7.45486 3.56266 8.00304 3.56266C8.54891 3.56266 8.98692 4.01356 8.9711 4.5592L8.84949 8.7528C8.83641 9.20382 8.46702 9.56266 8.01581 9.56266C7.56657 9.56266 7.19805 9.20684 7.18229 8.75787L7.03517 4.56509Z" fill="white"/>
<path fill-rule="evenodd" clip-rule="evenodd" d="M7 11.396C7 10.8437 7.44772 10.396 8 10.396C8.55228 10.396 9 10.8437 9 11.396C9 11.9483 8.55228 12.396 8 12.396C7.44772 12.396 7 11.9483 7 11.396Z" fill="white"/>
</svg>
