<svg width="24" height="24" viewBox="0 0 24 24" fill="none" xmlns="http://www.w3.org/2000/svg">
<path fill-rule="evenodd" clip-rule="evenodd" d="M0.856934 12.4286C2.75367 8.1361 7.02929 5.14285 11.9998 5.14285C16.9704 5.14285 21.246 8.1361 23.1427 12.4286C21.246 16.721 16.9704 19.7143 11.9998 19.7143C7.02929 19.7143 2.75367 16.721 0.856934 12.4286ZM16.7546 12.6063C16.7546 15.3542 14.5402 17.5819 11.8087 17.5819C9.07711 17.5819 6.86273 15.3542 6.86273 12.6063C6.86273 9.85831 9.07711 7.63066 11.8087 7.63066C14.5402 7.63066 16.7546 9.85831 16.7546 12.6063ZM11.8058 14.8817C12.9454 14.8817 13.8692 13.9481 13.8692 12.7965C13.8692 11.645 12.9454 10.7114 11.8058 10.7114C10.6661 10.7114 9.74226 11.645 9.74226 12.7965C9.74226 13.9481 10.6661 14.8817 11.8058 14.8817Z" fill="#A6B1BD"/>
<rect width="24" height="24" fill="white" fill-opacity="0.01"/>
</svg>
