<svg width="24" height="24" viewBox="0 0 24 24" fill="none" xmlns="http://www.w3.org/2000/svg">
<path fill-rule="evenodd" clip-rule="evenodd" d="M21.8654 10.1739C21.8654 10.1739 22.0001 11.5725 22.0001 12.0354C22.0001 12.5242 21.8654 13.9812 21.8654 13.9812L21.8646 13.9879C21.5492 16.1724 20.6683 18.1393 19.0601 19.5534L15.7558 17.1233C16.0069 16.9615 16.2455 16.7824 16.4693 16.5877C17.2666 15.8945 17.6528 14.9999 17.831 13.9879H12.2539V10.1739H21.8654Z" fill="#2682FA"/>
<path fill-rule="evenodd" clip-rule="evenodd" d="M19.1065 4.61562L16.1667 7.44188C15.1062 6.57828 13.8107 5.94533 12.3275 5.94533C9.60249 5.94533 7.28595 7.65464 6.43936 10.0359L3.08398 7.56815C4.77378 4.27953 8.26007 2 12.2539 2C14.8671 2 17.2955 3.03018 19.1 4.61002L19.1065 4.61562Z" fill="#E94335"/>
<path fill-rule="evenodd" clip-rule="evenodd" d="M19.0598 19.5534C19.0491 19.563 19.0382 19.5726 19.0273 19.5822C17.2258 21.1484 14.7975 22 12.1966 22C8.20066 22 4.7415 19.7536 3.06934 16.4829L6.43048 14.0109C7.27016 16.4046 9.593 18.1254 12.3272 18.1254C13.5934 18.1254 14.772 17.757 15.7555 17.1233L19.0598 19.5534Z" fill="#34A753"/>
<path fill-rule="evenodd" clip-rule="evenodd" d="M6.43065 14.0109L3.06951 16.4829C2.38507 15.1441 2 13.6337 2 12.0354C2 10.435 2.39089 8.91657 3.08388 7.56818L6.43926 10.0359C6.21645 10.6622 6.09551 11.3349 6.09551 12.0354C6.09551 12.7268 6.21345 13.3913 6.43065 14.0109Z" fill="#FFBB00"/>
</svg>
