<svg width="20" height="20" viewBox="0 0 20 20" fill="none" xmlns="http://www.w3.org/2000/svg">
<mask id="path-1-inside-1_481_5742" fill="white">
<path fill-rule="evenodd" clip-rule="evenodd" d="M10.4645 17.6502C10.203 17.939 9.74909 17.9384 9.48842 17.6488L1.98847 9.31664C1.60761 8.89352 1.90789 8.21924 2.47716 8.21924H6.47994V2.74085C6.47994 2.37771 6.77432 2.08333 7.13745 2.08333H12.8672C13.2303 2.08333 13.5247 2.37771 13.5247 2.74085V8.21924H17.5216C18.0918 8.21924 18.3917 8.8954 18.009 9.31807L10.4645 17.6502Z"/>
</mask>
<path d="M9.48842 17.6488L10.4546 16.779L10.4546 16.779L9.48842 17.6488ZM10.4645 17.6502L11.4282 18.5228L11.4282 18.5228L10.4645 17.6502ZM1.98847 9.31664L1.02224 10.1864H1.02224L1.98847 9.31664ZM6.47994 8.21924H7.77994V9.51924H6.47994V8.21924ZM13.5247 8.21924V9.51924H12.2247V8.21924H13.5247ZM18.009 9.31807L18.9727 10.1906L18.9727 10.1906L18.009 9.31807ZM10.4546 16.779C10.1999 16.4961 9.7564 16.4954 9.50085 16.7776L11.4282 18.5228C10.6496 19.3826 9.29825 19.3807 8.5222 18.5185L10.4546 16.779ZM2.95469 8.44692L10.4546 16.779L8.5222 18.5185L1.02224 10.1864L2.95469 8.44692ZM2.47716 9.51924C3.03343 9.51924 3.32685 8.86036 2.95469 8.44692L1.02224 10.1864C-0.111621 8.92668 0.782348 6.91924 2.47716 6.91924V9.51924ZM6.47994 9.51924H2.47716V6.91924H6.47994V9.51924ZM7.77994 2.74085V8.21924H5.17994V2.74085H7.77994ZM7.13745 3.38333C7.49229 3.38333 7.77994 3.09568 7.77994 2.74085H5.17994C5.17994 1.65974 6.05635 0.783335 7.13745 0.783335V3.38333ZM12.8672 3.38333H7.13745V0.783335H12.8672V3.38333ZM12.2247 2.74085C12.2247 3.09568 12.5124 3.38333 12.8672 3.38333V0.783335C13.9483 0.783335 14.8247 1.65974 14.8247 2.74085H12.2247ZM12.2247 8.21924V2.74085H14.8247V8.21924H12.2247ZM17.5216 9.51924H13.5247V6.91924H17.5216V9.51924ZM17.0454 8.44551C16.6714 8.85852 16.9645 9.51924 17.5216 9.51924V6.91924C19.2192 6.91924 20.1121 8.93228 18.9727 10.1906L17.0454 8.44551ZM9.50085 16.7776L17.0454 8.44551L18.9727 10.1906L11.4282 18.5228L9.50085 16.7776Z" fill="#858A8C" mask="url(#path-1-inside-1_481_5742)"/>
</svg>
