<svg width="18" height="18" viewBox="0 0 18 18" fill="none" xmlns="http://www.w3.org/2000/svg">
<mask id="path-1-inside-1_125_2511" fill="white">
<path fill-rule="evenodd" clip-rule="evenodd" d="M9.4674 2.16883C9.20588 1.88 8.75198 1.88067 8.49131 2.17026L1.88886 9.50531C1.508 9.92842 1.80828 10.6027 2.37755 10.6027H5.83241V15.4675C5.83241 15.8306 6.12678 16.125 6.48992 16.125H11.5152C11.8783 16.125 12.1727 15.8306 12.1727 15.4675V10.6027H15.6217C16.1919 10.6027 16.4918 9.92654 16.1091 9.50387L9.4674 2.16883Z"/>
</mask>
<path d="M8.49131 2.17026L9.45753 3.03998L9.45753 3.03998L8.49131 2.17026ZM9.4674 2.16883L10.4311 1.29626V1.29626L9.4674 2.16883ZM1.88886 9.50531L0.922635 8.63559L0.922635 8.63559L1.88886 9.50531ZM5.83241 10.6027H7.13241V9.30271H5.83241V10.6027ZM12.1727 10.6027V9.30271H10.8727V10.6027H12.1727ZM16.1091 9.50387L15.1454 10.3764L16.1091 9.50387ZM9.45753 3.03998C9.20282 3.32296 8.75929 3.32361 8.50375 3.04139L10.4311 1.29626C9.65247 0.436391 8.30114 0.438378 7.52509 1.30054L9.45753 3.03998ZM2.85508 10.375L9.45753 3.03998L7.52509 1.30054L0.922635 8.63559L2.85508 10.375ZM2.37755 9.30271C2.93382 9.30271 3.22723 9.96158 2.85508 10.375L0.922635 8.63559C-0.211229 9.89527 0.682736 11.9027 2.37755 11.9027V9.30271ZM5.83241 9.30271H2.37755V11.9027H5.83241V9.30271ZM7.13241 15.4675V10.6027H4.53241V15.4675H7.13241ZM6.48992 14.825C6.84476 14.825 7.13241 15.1127 7.13241 15.4675H4.53241C4.53241 16.5486 5.40881 17.425 6.48992 17.425V14.825ZM11.5152 14.825H6.48992V17.425H11.5152V14.825ZM10.8727 15.4675C10.8727 15.1127 11.1604 14.825 11.5152 14.825V17.425C12.5963 17.425 13.4727 16.5486 13.4727 15.4675H10.8727ZM10.8727 10.6027V15.4675H13.4727V10.6027H10.8727ZM15.6217 9.30271H12.1727V11.9027H15.6217V9.30271ZM15.1454 10.3764C14.7715 9.96342 15.0645 9.30271 15.6217 9.30271V11.9027C17.3192 11.9027 18.2121 9.88967 17.0727 8.63131L15.1454 10.3764ZM8.50375 3.04139L15.1454 10.3764L17.0727 8.63131L10.4311 1.29626L8.50375 3.04139Z" fill="#858A8C" mask="url(#path-1-inside-1_125_2511)"/>
</svg>
