<svg width="18" height="18" viewBox="0 0 18 18" fill="none" xmlns="http://www.w3.org/2000/svg">
<mask id="path-1-inside-1_805_17790" fill="white">
<path fill-rule="evenodd" clip-rule="evenodd" d="M9.4674 2.16834C9.20588 1.87951 8.75198 1.88018 8.49131 2.16977L1.88886 9.50482C1.508 9.92794 1.80828 10.6022 2.37755 10.6022H5.83241V15.467C5.83241 15.8302 6.12678 16.1245 6.48992 16.1245H11.5152C11.8783 16.1245 12.1727 15.8302 12.1727 15.467V10.6022H15.6217C16.1919 10.6022 16.4918 9.92606 16.1091 9.50339L9.4674 2.16834Z"/>
</mask>
<path fill-rule="evenodd" clip-rule="evenodd" d="M9.4674 2.16834C9.20588 1.87951 8.75198 1.88018 8.49131 2.16977L1.88886 9.50482C1.508 9.92794 1.80828 10.6022 2.37755 10.6022H5.83241V15.467C5.83241 15.8302 6.12678 16.1245 6.48992 16.1245H11.5152C11.8783 16.1245 12.1727 15.8302 12.1727 15.467V10.6022H15.6217C16.1919 10.6022 16.4918 9.92606 16.1091 9.50339L9.4674 2.16834Z" fill="#1A1A1A"/>
<path d="M8.49131 2.16977L9.45753 3.03949L9.45753 3.03949L8.49131 2.16977ZM9.4674 2.16834L10.4311 1.29577V1.29577L9.4674 2.16834ZM1.88886 9.50482L0.922635 8.6351L0.922634 8.6351L1.88886 9.50482ZM5.83241 10.6022H7.13241V9.30222H5.83241V10.6022ZM12.1727 10.6022V9.30222H10.8727V10.6022H12.1727ZM16.1091 9.50339L17.0727 8.63082V8.63082L16.1091 9.50339ZM9.45753 3.03949C9.20282 3.32247 8.75929 3.32312 8.50375 3.0409L10.4311 1.29577C9.65247 0.435902 8.30114 0.43789 7.52509 1.30005L9.45753 3.03949ZM2.85508 10.3745L9.45753 3.03949L7.52509 1.30005L0.922635 8.6351L2.85508 10.3745ZM2.37755 9.30222C2.93382 9.30222 3.22723 9.96109 2.85508 10.3745L0.922634 8.6351C-0.211228 9.89478 0.682735 11.9022 2.37755 11.9022V9.30222ZM5.83241 9.30222H2.37755V11.9022H5.83241V9.30222ZM7.13241 15.467V10.6022H4.53241V15.467H7.13241ZM6.48992 14.8245C6.84475 14.8245 7.13241 15.1122 7.13241 15.467H4.53241C4.53241 16.5481 5.40881 17.4245 6.48992 17.4245V14.8245ZM11.5152 14.8245H6.48992V17.4245H11.5152V14.8245ZM10.8727 15.467C10.8727 15.1122 11.1604 14.8245 11.5152 14.8245V17.4245C12.5963 17.4245 13.4727 16.5481 13.4727 15.467H10.8727ZM10.8727 10.6022V15.467H13.4727V10.6022H10.8727ZM15.6217 9.30222H12.1727V11.9022H15.6217V9.30222ZM15.1454 10.3759C14.7715 9.96293 15.0645 9.30222 15.6217 9.30222V11.9022C17.3192 11.9022 18.2121 9.88918 17.0727 8.63082L15.1454 10.3759ZM8.50375 3.0409L15.1454 10.3759L17.0727 8.63082L10.4311 1.29577L8.50375 3.0409Z" fill="#1A1A1A" mask="url(#path-1-inside-1_805_17790)"/>
</svg>
