<svg width="18" height="18" viewBox="0 0 18 18" fill="none" xmlns="http://www.w3.org/2000/svg">
<g id="ic_up">
<g id="Combined Shape">
<mask id="path-1-inside-1_834_26623" fill="white">
<path fill-rule="evenodd" clip-rule="evenodd" d="M9.4674 2.16931C9.20588 1.88049 8.75198 1.88116 8.49131 2.17075L1.88886 9.5058C1.508 9.92891 1.80828 10.6032 2.37755 10.6032H5.83241V15.468C5.83241 15.8311 6.12678 16.1255 6.48992 16.1255H11.5152C11.8783 16.1255 12.1727 15.8311 12.1727 15.468V10.6032H15.6217C16.1919 10.6032 16.4918 9.92703 16.1091 9.50436L9.4674 2.16931Z"/>
</mask>
<path d="M8.49131 2.17075L9.45753 3.04047L9.45753 3.04047L8.49131 2.17075ZM9.4674 2.16931L10.4311 1.29675V1.29675L9.4674 2.16931ZM1.88886 9.5058L0.922635 8.63608L0.922634 8.63608L1.88886 9.5058ZM5.83241 10.6032H7.13241V9.3032H5.83241V10.6032ZM12.1727 10.6032V9.3032H10.8727V10.6032H12.1727ZM16.1091 9.50436L17.0727 8.6318V8.6318L16.1091 9.50436ZM9.45753 3.04047C9.20282 3.32345 8.75929 3.3241 8.50375 3.04188L10.4311 1.29675C9.65247 0.436879 8.30114 0.438866 7.52509 1.30103L9.45753 3.04047ZM2.85508 10.3755L9.45753 3.04047L7.52509 1.30103L0.922635 8.63608L2.85508 10.3755ZM2.37755 9.3032C2.93382 9.3032 3.22723 9.96207 2.85508 10.3755L0.922634 8.63608C-0.211228 9.89575 0.682735 11.9032 2.37755 11.9032V9.3032ZM5.83241 9.3032H2.37755V11.9032H5.83241V9.3032ZM7.13241 15.468V10.6032H4.53241V15.468H7.13241ZM6.48992 14.8255C6.84475 14.8255 7.13241 15.1132 7.13241 15.468H4.53241C4.53241 16.5491 5.40881 17.4255 6.48992 17.4255V14.8255ZM11.5152 14.8255H6.48992V17.4255H11.5152V14.8255ZM10.8727 15.468C10.8727 15.1132 11.1604 14.8255 11.5152 14.8255V17.4255C12.5963 17.4255 13.4727 16.5491 13.4727 15.468H10.8727ZM10.8727 10.6032V15.468H13.4727V10.6032H10.8727ZM15.6217 9.3032H12.1727V11.9032H15.6217V9.3032ZM15.1454 10.3769C14.7715 9.96391 15.0645 9.3032 15.6217 9.3032V11.9032C17.3192 11.9032 18.2121 9.89016 17.0727 8.6318L15.1454 10.3769ZM8.50375 3.04188L15.1454 10.3769L17.0727 8.6318L10.4311 1.29675L8.50375 3.04188Z" fill="#5A5C5E" mask="url(#path-1-inside-1_834_26623)"/>
</g>
</g>
</svg>
