<svg width="32" height="32" viewBox="0 0 32 32" fill="none" xmlns="http://www.w3.org/2000/svg">
<rect width="32" height="32" fill="white"/>
<rect width="32" height="32" fill="white" fill-opacity="0.01"/>
<path fill-rule="evenodd" clip-rule="evenodd" d="M16.6801 7.03505C16.2811 6.7211 15.7189 6.7211 15.3199 7.03505L7.91987 12.8566C7.65476 13.0651 7.5 13.3838 7.5 13.7211V24.95C7.5 25.2538 7.74624 25.5 8.05 25.5H13.0681C13.3719 25.5 13.6181 25.2538 13.6181 24.95V19.6671C13.6181 19.0596 14.1106 18.5671 14.7181 18.5671H17.2134C17.8209 18.5671 18.3134 19.0596 18.3134 19.6671V24.95C18.3134 25.2538 18.5596 25.5 18.8634 25.5H23.95C24.2538 25.5 24.5 25.2538 24.5 24.95V13.7211C24.5 13.3838 24.3452 13.0651 24.0801 12.8566L16.6801 7.03505Z" fill="#1A1A1A" stroke="#1A1A1A" stroke-width="1.1"/>
</svg>
