<svg width="14" height="14" viewBox="0 0 14 14" fill="none" xmlns="http://www.w3.org/2000/svg">
<path fill-rule="evenodd" clip-rule="evenodd" d="M7.99319 1.17625C8.02723 1.16138 8.06632 1.16363 8.09845 1.18228C8.15417 1.21464 8.1731 1.28604 8.14075 1.34176C7.71003 2.07818 7.42869 2.64874 7.29656 3.05334C7.17762 3.41754 7.11892 3.68837 7.12055 3.86584C7.12111 3.88814 7.12805 3.90982 7.14055 3.92829C7.17665 3.98166 7.24918 3.99566 7.30255 3.95956C7.45822 3.85084 7.64718 3.69503 7.86843 3.4907C8.13436 3.24511 8.40925 3.03872 8.693 2.87137C8.71511 2.85843 8.74088 2.85312 8.76631 2.85628C8.83025 2.86422 8.87565 2.92249 8.86772 2.98643L8.85056 3.13275C8.812 3.5135 8.82937 3.81847 8.90267 4.04767C9.1466 4.81041 9.73428 5.22945 9.97976 5.47698C10.8847 6.38948 11.2777 7.78809 11.2307 9.15178C11.1467 11.5825 9.13017 13.4843 6.72661 13.3994C4.32305 13.3145 2.33301 11.146 2.33301 8.71521C2.33301 7.39665 2.55377 6.3819 3.43504 4.87255C4.30973 3.37447 5.82926 2.1427 7.99319 1.17625ZM6.95941 6.56899C6.19008 7.14034 5.70599 7.55124 5.50791 7.80271C4.82706 8.66705 4.76658 9.19248 4.75331 9.57245C4.71328 10.7189 5.61021 11.6807 6.75667 11.7208C7.90313 11.7608 8.86497 10.8639 8.90501 9.71743C8.93662 8.81235 8.3657 8.07792 7.68345 7.80271C7.57963 7.76083 7.18237 7.56229 7.08362 7.22346C7.03899 7.07032 7.02333 6.91201 7.03665 6.74853L7.05211 6.62495C7.05729 6.59315 7.03572 6.56317 7.00392 6.55799C6.98821 6.55542 6.97212 6.5594 6.95941 6.56899Z" fill="#868A8C"/>
</svg>
