<svg width="16" height="16" viewBox="0 0 16 16" fill="none" xmlns="http://www.w3.org/2000/svg">
<path fill-rule="evenodd" clip-rule="evenodd" d="M5.69683 6.47226C5.88716 6.22735 6.25224 6.21304 6.46117 6.44228L10.8004 11.2034L3.60036 11.1998L3.57422 9.20342L5.69683 6.47226Z" fill="#333333"/>
<path fill-rule="evenodd" clip-rule="evenodd" d="M10.0389 8.06383C10.228 7.82068 10.5899 7.80472 10.7997 8.03028L12.3996 9.75041V11.2001H7.59961L10.0389 8.06383Z" fill="#333333"/>
<circle cx="10.5996" cy="5.7998" r="1" fill="#333333"/>
<path d="M2.55 4.3999C2.55 3.59909 3.19919 2.9499 4 2.9499H12C12.8008 2.9499 13.45 3.59909 13.45 4.3999V10.7999C13.45 11.6007 12.8008 12.2499 12 12.2499H4C3.19919 12.2499 2.55 11.6007 2.55 10.7999V4.3999Z" stroke="#333333" stroke-width="1.1"/>
</svg>
