<svg width="16" height="16" viewBox="0 0 16 16" fill="none" xmlns="http://www.w3.org/2000/svg">
<path d="M3.89324 12.0936H12.1066V8.73362C12.1066 6.46557 10.268 4.62695 7.9999 4.62695V4.62695C5.73185 4.62695 3.89324 6.46557 3.89324 8.73362V12.0936ZM13.5999 13.0936V13.3336C13.5999 13.8859 13.1522 14.3336 12.5999 14.3336H3.3999C2.84762 14.3336 2.3999 13.8859 2.3999 13.3336V13.0936C2.3999 12.5413 2.84762 12.0936 3.3999 12.0936H12.5999C13.1522 12.0936 13.5999 12.5413 13.5999 13.0936Z" stroke="#858A8C" stroke-width="1.3" stroke-linecap="round"/>
<path d="M8 3.13327V1.2666" stroke="#858A8C" stroke-width="1.3" stroke-linecap="round"/>
<path d="M4.63978 3.88005L3.51978 2.38672" stroke="#858A8C" stroke-width="1.3" stroke-linecap="round"/>
<path d="M12.48 2.01322L11.7333 3.87988" stroke="#858A8C" stroke-width="1.3" stroke-linecap="round"/>
</svg>
