<svg width="20" height="20" viewBox="0 0 20 20" fill="none" xmlns="http://www.w3.org/2000/svg">
<path d="M1.72617 2C1.72617 1.8067 1.88287 1.65 2.07617 1.65H18.3748C18.5681 1.65 18.7248 1.8067 18.7248 2V8.03571C18.7248 8.22901 18.5681 8.38571 18.3748 8.38571H2.07617C1.88287 8.38571 1.72617 8.22901 1.72617 8.03571V2Z" fill="white" stroke="#1A1A1A" stroke-width="1.3" stroke-linecap="round"/>
<path d="M1.72617 11.9638C1.72617 11.7705 1.88287 11.6138 2.07617 11.6138H18.3748C18.5681 11.6138 18.7248 11.7705 18.7248 11.9638V17.9995C18.7248 18.1928 18.5681 18.3495 18.3748 18.3495H2.07617C1.88287 18.3495 1.72617 18.1928 1.72617 17.9995V11.9638Z" fill="white" stroke="#1A1A1A" stroke-width="1.3" stroke-linecap="round"/>
</svg>
