<svg width="16" height="17" viewBox="0 0 16 17" fill="none" xmlns="http://www.w3.org/2000/svg">
<path d="M10.2396 4.19922L10.6557 3.92187L10.3783 3.50584L9.9623 3.78319L10.2396 4.19922ZM5.2168 7.54779L4.93945 7.13176L4.52342 7.40911L4.80077 7.82514L5.2168 7.54779ZM10.3506 4.36563L10.6279 4.78165L11.044 4.5043L10.7666 4.08828L10.3506 4.36563ZM5.32774 7.7142L4.91171 7.99155L5.18906 8.40757L5.60509 8.13022L5.32774 7.7142ZM5.33372 9.62017L4.89664 9.37735L4.65382 9.81442L5.0909 10.0572L5.33372 9.62017ZM10.3014 12.38L10.0586 12.8171L10.4956 13.0599L10.7385 12.6228L10.3014 12.38ZM5.43085 9.44534L5.67367 9.00826L5.23659 8.76544L4.99377 9.20251L5.43085 9.44534ZM10.3985 12.2052L10.8356 12.448L11.0784 12.0109L10.6413 11.7681L10.3985 12.2052ZM9.9623 3.78319L4.93945 7.13176L5.49415 7.96381L10.517 4.61524L9.9623 3.78319ZM10.7666 4.08828L10.6557 3.92187L9.82362 4.47657L9.93456 4.64298L10.7666 4.08828ZM5.60509 8.13022L10.6279 4.78165L10.0732 3.9496L5.05039 7.29817L5.60509 8.13022ZM4.80077 7.82514L4.91171 7.99155L5.74376 7.43685L5.63282 7.27044L4.80077 7.82514ZM5.0909 10.0572L10.0586 12.8171L10.5442 11.9429L5.57654 9.18309L5.0909 10.0572ZM4.99377 9.20251L4.89664 9.37735L5.7708 9.86299L5.86792 9.68816L4.99377 9.20251ZM10.6413 11.7681L5.67367 9.00826L5.18802 9.88241L10.1557 12.6422L10.6413 11.7681ZM10.7385 12.6228L10.8356 12.448L9.96144 11.9623L9.86431 12.1372L10.7385 12.6228Z" fill="#858A8C"/>
<path d="M13.27 12.9544C13.27 13.7789 12.6016 14.4472 11.7771 14.4472C10.9527 14.4472 10.2843 13.7789 10.2843 12.9544C10.2843 12.1299 10.9527 11.4615 11.7771 11.4615C12.6016 11.4615 13.27 12.1299 13.27 12.9544Z" stroke="#858A8C" stroke-width="1.3"/>
<circle cx="11.7771" cy="3.43485" r="1.49286" stroke="#858A8C" stroke-width="1.3"/>
<path d="M5.55564 8.63504C5.55564 9.45953 4.88726 10.1279 4.06278 10.1279C3.2383 10.1279 2.56992 9.45953 2.56992 8.63504C2.56992 7.81056 3.2383 7.14219 4.06278 7.14219C4.88726 7.14219 5.55564 7.81056 5.55564 8.63504Z" stroke="#858A8C" stroke-width="1.3"/>
</svg>
