<svg width="24" height="24" viewBox="0 0 24 24" fill="none" xmlns="http://www.w3.org/2000/svg">
<path d="M14.9414 6.51904L15.3458 6.22497L15.0517 5.82059L14.6473 6.11466L14.9414 6.51904ZM8.34082 11.319L8.04675 10.9147L7.64237 11.2087L7.93644 11.6131L8.34082 11.319ZM15.059 6.6808L15.3531 7.08518L15.7575 6.79111L15.4634 6.38673L15.059 6.6808ZM8.45845 11.4808L8.05407 11.7749L8.34814 12.1792L8.75252 11.8852L8.45845 11.4808ZM8.35212 14.4877L7.91317 14.2483L7.67375 14.6872L8.1127 14.9267L8.35212 14.4877ZM14.9521 18.0877L14.7127 18.5267L15.1516 18.7661L15.3911 18.3271L14.9521 18.0877ZM8.44789 14.3121L8.68732 13.8732L8.24837 13.6338L8.00895 14.0727L8.44789 14.3121ZM15.0479 17.9121L15.4868 18.1516L15.7263 17.7126L15.2873 17.4732L15.0479 17.9121ZM14.6473 6.11466L8.04675 10.9147L8.63489 11.7234L15.2355 6.92342L14.6473 6.11466ZM15.4634 6.38673L15.3458 6.22497L14.537 6.81311L14.6547 6.97486L15.4634 6.38673ZM8.75252 11.8852L15.3531 7.08518L14.765 6.27641L8.16438 11.0764L8.75252 11.8852ZM7.93644 11.6131L8.05407 11.7749L8.86283 11.1867L8.7452 11.025L7.93644 11.6131ZM8.1127 14.9267L14.7127 18.5267L15.1915 17.6488L8.59155 14.0488L8.1127 14.9267ZM8.00895 14.0727L7.91317 14.2483L8.79107 14.7271L8.88684 14.5516L8.00895 14.0727ZM15.2873 17.4732L8.68732 13.8732L8.20847 14.7511L14.8085 18.3511L15.2873 17.4732ZM15.3911 18.3271L15.4868 18.1516L14.6089 17.6727L14.5132 17.8483L15.3911 18.3271Z" fill="#1A1A1A"/>
<circle cx="17.6655" cy="19.2934" r="2.56429" stroke="#1A1A1A" stroke-width="1.3"/>
<circle cx="17.6655" cy="5.01409" r="2.56429" stroke="#1A1A1A" stroke-width="1.3"/>
<path d="M8.65845 12.8139C8.65845 14.2301 7.51038 15.3782 6.09417 15.3782C4.67795 15.3782 3.52988 14.2301 3.52988 12.8139C3.52988 11.3977 4.67795 10.2496 6.09417 10.2496C7.51038 10.2496 8.65845 11.3977 8.65845 12.8139Z" stroke="#1A1A1A" stroke-width="1.3"/>
</svg>
