<svg width="24" height="24" viewBox="0 0 24 24" fill="none" xmlns="http://www.w3.org/2000/svg">
<mask id="path-1-inside-1_64_19638" fill="white">
<path fill-rule="evenodd" clip-rule="evenodd" d="M21.6004 12.0001C21.6004 6.69816 17.3023 2.4001 12.0004 2.4001C6.69846 2.4001 2.40039 6.69816 2.40039 12.0001C2.40039 17.302 6.69846 21.6001 12.0004 21.6001C13.7609 21.6001 15.4107 21.1262 16.8292 20.2991L20.2582 21.3908C20.8515 21.5796 21.4237 21.0482 21.279 20.4426L20.3815 16.6852C21.1578 15.2994 21.6004 13.7015 21.6004 12.0001Z"/>
</mask>
<path d="M16.8292 20.2991L17.2236 19.0603L16.6732 18.8851L16.1743 19.176L16.8292 20.2991ZM20.2582 21.3908L20.6526 20.152V20.152L20.2582 21.3908ZM21.279 20.4426L20.0146 20.7446V20.7446L21.279 20.4426ZM20.3815 16.6852L19.2473 16.0499L18.999 16.4931L19.1171 16.9872L20.3815 16.6852ZM12.0004 3.7001C16.5844 3.7001 20.3004 7.41613 20.3004 12.0001H22.9004C22.9004 5.98019 18.0203 1.1001 12.0004 1.1001V3.7001ZM3.70039 12.0001C3.70039 7.41613 7.41643 3.7001 12.0004 3.7001V1.1001C5.98049 1.1001 1.10039 5.98019 1.10039 12.0001H3.70039ZM12.0004 20.3001C7.41643 20.3001 3.70039 16.5841 3.70039 12.0001H1.10039C1.10039 18.02 5.98049 22.9001 12.0004 22.9001V20.3001ZM16.1743 19.176C14.9492 19.8904 13.5246 20.3001 12.0004 20.3001V22.9001C13.9971 22.9001 15.8721 22.362 17.484 21.4221L16.1743 19.176ZM20.6526 20.152L17.2236 19.0603L16.4348 21.5378L19.8638 22.6295L20.6526 20.152ZM20.0146 20.7446C19.9242 20.3661 20.2818 20.034 20.6526 20.152L19.8638 22.6295C21.4213 23.1253 22.9232 21.7303 22.5434 20.1406L20.0146 20.7446ZM19.1171 16.9872L20.0146 20.7446L22.5434 20.1406L21.6459 16.3832L19.1171 16.9872ZM20.3004 12.0001C20.3004 13.4733 19.9177 14.8532 19.2473 16.0499L21.5156 17.3206C22.3979 15.7457 22.9004 13.9296 22.9004 12.0001H20.3004Z" fill="#1A1A1A" mask="url(#path-1-inside-1_64_19638)"/>
<path d="M9.3 11.6998C9.3 12.1969 8.89706 12.5998 8.4 12.5998C7.90294 12.5998 7.5 12.1969 7.5 11.6998C7.5 11.2027 7.90294 10.7998 8.4 10.7998C8.89706 10.7998 9.3 11.2027 9.3 11.6998Z" fill="#1A1A1A"/>
<path d="M12.8996 11.6998C12.8996 12.1969 12.4967 12.5998 11.9996 12.5998C11.5026 12.5998 11.0996 12.1969 11.0996 11.6998C11.0996 11.2027 11.5026 10.7998 11.9996 10.7998C12.4967 10.7998 12.8996 11.2027 12.8996 11.6998Z" fill="#1A1A1A"/>
<path d="M16.5002 11.6998C16.5002 12.1969 16.0973 12.5998 15.6002 12.5998C15.1031 12.5998 14.7002 12.1969 14.7002 11.6998C14.7002 11.2027 15.1031 10.7998 15.6002 10.7998C16.0973 10.7998 16.5002 11.2027 16.5002 11.6998Z" fill="#1A1A1A"/>
</svg>
