<svg width="56" height="48" viewBox="0 0 56 48" fill="none" xmlns="http://www.w3.org/2000/svg">
<path opacity="0.3001" fill-rule="evenodd" clip-rule="evenodd" d="M56 23.7607C56 30.075 53.0976 35.8141 48.3631 40.0695C48.4507 41.3114 48.5647 42.6282 48.6895 43.3142C48.8207 44.0358 49.3942 45.3186 49.9624 46.4705C50.3738 47.3044 49.5525 48.2454 48.6864 47.9068C46.9952 47.2454 44.9543 46.4135 44.231 45.9802C43.6885 45.6552 42.838 44.9945 42.0256 44.3301C37.9014 46.3596 33.1106 47.5215 28 47.5215C12.536 47.5215 0 36.8834 0 23.7607C0 10.638 12.536 0 28 0C43.464 0 56 10.638 56 23.7607ZM18.5229 26.794C19.9037 26.794 21.0229 25.6623 21.0229 24.2663C21.0229 22.8703 19.9037 21.7386 18.5229 21.7386C17.1422 21.7386 16.0229 22.8703 16.0229 24.2663C16.0229 25.6623 17.1422 26.794 18.5229 26.794ZM30.0229 24.2663C30.0229 25.6623 28.9037 26.794 27.5229 26.794C26.1422 26.794 25.0229 25.6623 25.0229 24.2663C25.0229 22.8703 26.1422 21.7386 27.5229 21.7386C28.9037 21.7386 30.0229 22.8703 30.0229 24.2663ZM36.5229 26.794C37.9037 26.794 39.0229 25.6623 39.0229 24.2663C39.0229 22.8703 37.9037 21.7386 36.5229 21.7386C35.1422 21.7386 34.0229 22.8703 34.0229 24.2663C34.0229 25.6623 35.1422 26.794 36.5229 26.794Z" fill="#748EA3"/>
</svg>
