<svg width="32" height="32" viewBox="0 0 32 32" fill="none" xmlns="http://www.w3.org/2000/svg">
<rect width="32" height="32" fill="white"/>
<rect width="32" height="32" fill="white" fill-opacity="0.01"/>
<circle cx="16" cy="16" r="11" stroke="#5A5C5E" stroke-width="1.21" stroke-linejoin="round"/>
<path d="M16.0004 10.3999H16.6054C16.6054 10.0658 16.3345 9.7949 16.0004 9.7949V10.3999ZM16.0004 10.5999V11.2049C16.3345 11.2049 16.6054 10.934 16.6054 10.5999H16.0004ZM11.7973 19.3905L12.1775 19.8612C12.3023 19.7604 12.382 19.6141 12.399 19.4545C12.4159 19.295 12.3688 19.1352 12.268 19.0104L11.7973 19.3905ZM11.6418 19.5162L11.1711 19.8964C11.3811 20.1563 11.762 20.1968 12.0219 19.9869L11.6418 19.5162ZM20.3652 12.4913L20.8365 12.112C20.627 11.8517 20.2462 11.8105 19.9859 12.02L20.3652 12.4913ZM16.0004 21.5999H15.3954C15.3954 21.934 15.6663 22.2049 16.0004 22.2049V21.5999ZM16.0004 21.3999V20.7949C15.6663 20.7949 15.3954 21.0658 15.3954 21.3999H16.0004ZM20.2094 12.6167L19.8301 12.1454C19.7051 12.246 19.6252 12.3921 19.6079 12.5517C19.5907 12.7112 19.6375 12.871 19.7381 12.996L20.2094 12.6167ZM16.0004 9.7949C12.5735 9.7949 9.79539 12.573 9.79539 15.9999H11.0054C11.0054 13.2412 13.2417 11.0049 16.0004 11.0049V9.7949ZM16.6054 10.5999V10.3999H15.3954V10.5999H16.6054ZM11.2054 15.9999C11.2054 13.3517 13.3522 11.2049 16.0004 11.2049V9.9949C12.6839 9.9949 9.99539 12.6834 9.99539 15.9999H11.2054ZM12.268 19.0104C11.6031 18.1872 11.2054 17.141 11.2054 15.9999H9.99539C9.99539 17.4276 10.4942 18.7401 11.3267 19.7707L12.268 19.0104ZM12.0219 19.9869L12.1775 19.8612L11.4172 18.9199L11.2616 19.0456L12.0219 19.9869ZM9.79539 15.9999C9.79539 17.4749 10.311 18.8315 11.1711 19.8964L12.1124 19.1361C11.4198 18.2786 11.0054 17.1883 11.0054 15.9999H9.79539ZM22.2054 15.9999C22.2054 14.5288 21.6926 13.1756 20.8365 12.112L19.8939 12.8706C20.5832 13.727 20.9954 14.8147 20.9954 15.9999H22.2054ZM16.0004 22.2049C19.4273 22.2049 22.2054 19.4268 22.2054 15.9999H20.9954C20.9954 18.7586 18.7591 20.9949 16.0004 20.9949V22.2049ZM15.3954 21.3999V21.5999H16.6054V21.3999H15.3954ZM20.7954 15.9999C20.7954 18.6481 18.6486 20.7949 16.0004 20.7949V22.0049C19.3169 22.0049 22.0054 19.3164 22.0054 15.9999H20.7954ZM19.7381 12.996C20.3998 13.8182 20.7954 14.8619 20.7954 15.9999H22.0054C22.0054 14.5761 21.5092 13.2667 20.6807 12.2374L19.7381 12.996ZM19.9859 12.02L19.8301 12.1454L20.5888 13.088L20.7446 12.9626L19.9859 12.02Z" fill="#5A5C5E"/>
<path d="M19.0412 14.3011L19.7873 11.8916L22.3714 12.2548" stroke="#5A5C5E" stroke-width="1.21" stroke-linecap="round" stroke-linejoin="round"/>
<path d="M12.8205 17.5501L12.2015 19.9953L9.60193 19.7679" stroke="#5A5C5E" stroke-width="1.21" stroke-linecap="round" stroke-linejoin="round"/>
</svg>
