<svg width="32" height="32" viewBox="0 0 32 32" fill="none" xmlns="http://www.w3.org/2000/svg">
<rect width="32" height="32" fill="white" fill-opacity="0.01"/>
<circle cx="16" cy="16" r="11" fill="#1A1A1A"/>
<path fill-rule="evenodd" clip-rule="evenodd" d="M9.9502 16C9.9502 12.6586 12.6589 9.94995 16.0002 9.94995V11.05C13.2664 11.05 11.0502 13.2661 11.0502 16C11.0502 17.1777 11.4608 18.2581 12.1472 19.1078L11.2915 19.799C10.4528 18.7607 9.9502 17.4383 9.9502 16ZM20.7156 12.2092C21.5503 13.2463 22.0502 14.5655 22.0502 16C22.0502 19.3413 19.3415 22.05 16.0002 22.05V20.95C18.734 20.95 20.9502 18.7338 20.9502 16C20.9502 14.8253 20.5417 13.7476 19.8587 12.8989L20.7156 12.2092Z" fill="white"/>
<path d="M19.0412 14.3011L19.7873 11.8916L22.3714 12.2548" stroke="white" stroke-width="1.1" stroke-linecap="round" stroke-linejoin="round"/>
<path d="M12.8205 17.5501L12.2015 19.9953L9.60193 19.7679" stroke="white" stroke-width="1.1" stroke-linecap="round" stroke-linejoin="round"/>
</svg>
