<svg width="24" height="24" viewBox="0 0 24 24" fill="none" xmlns="http://www.w3.org/2000/svg">
<mask id="mask0_500_6050" style="mask-type:luminance" maskUnits="userSpaceOnUse" x="1" y="1" width="22" height="22">
<path fill-rule="evenodd" clip-rule="evenodd" d="M1 1.0733H22.9264V23H1V1.0733Z" fill="white"/>
</mask>
<g mask="url(#mask0_500_6050)">
<path fill-rule="evenodd" clip-rule="evenodd" d="M10.984 1.0733H12.9339C15.6121 1.0733 17.177 1.46672 18.5664 2.21187C19.9556 2.95701 21.0519 4.04543 21.7883 5.43515C22.5332 6.82486 22.9264 8.39051 22.9264 11.0695V13.012C22.9264 15.691 22.5332 17.2565 21.7883 18.6462C21.0436 20.0359 19.9556 21.1326 18.5664 21.8695C17.177 22.6145 15.6121 23.008 12.9339 23.008H10.9925C8.31435 23.008 6.74942 22.6145 5.36022 21.8695C3.97102 21.1243 2.8747 20.0359 2.13814 18.6462C1.39341 17.2565 1 15.691 1 13.012V11.0695C1 8.39051 1.39341 6.82486 2.13814 5.43515C2.88301 4.04543 3.97102 2.9487 5.36022 2.21187C6.74098 1.46672 8.31435 1.0733 10.984 1.0733Z" fill="#41609D"/>
<path fill-rule="evenodd" clip-rule="evenodd" d="M12.9337 23.0082H10.9923C8.80098 23.0082 7.35484 22.7446 6.14041 22.2407L6.14014 22.2404C7.35456 22.7445 8.80071 23.008 10.9924 23.008H12.9338C15.612 23.008 17.1769 22.6145 18.5663 21.8695C19.2581 21.5025 19.8754 21.0462 20.4126 20.509C19.8752 21.0464 19.2581 21.5026 18.5661 21.8696C17.1768 22.6146 15.6119 23.0082 12.9337 23.0082Z" fill="#DEE1E0"/>
<path fill-rule="evenodd" clip-rule="evenodd" d="M12.9342 23.008H10.9927C8.80104 23.008 7.35489 22.7445 6.14047 22.2404L4.13867 20.1783L22.9265 12.6914V13.012C22.9265 15.6911 22.5333 17.2566 21.7884 18.6463C21.4146 19.3439 20.9543 19.9676 20.413 20.509C19.8757 21.0462 19.2585 21.5025 18.5666 21.8695C17.1772 22.6145 15.6123 23.008 12.9342 23.008Z" fill="#3A5A99"/>
</g>
<path fill-rule="evenodd" clip-rule="evenodd" d="M4.36076 20.2501C5.38624 20.3635 6.66824 20.0709 7.57861 19.6289C11.5317 21.8146 17.7109 21.7103 21.4511 19.3156C21.5962 19.0981 21.7318 18.8717 21.8575 18.6369C22.6052 17.2422 22.9999 15.6708 22.9999 12.9821V11.0327C22.9999 8.34378 22.6052 6.77255 21.8575 5.37765C21.1184 3.98289 20.0181 2.89066 18.6238 2.14279C17.2295 1.39492 15.6587 1 12.971 1H11.0139C8.72466 1 7.23874 1.28822 5.99012 1.83863C5.92187 1.89981 5.85485 1.96195 5.78933 2.02519C2.12616 5.55767 1.84772 13.2152 4.95387 17.3746L4.96545 17.3933C5.44427 18.0992 4.98221 19.3342 4.25995 20.0569C4.14225 20.1662 4.18435 20.2334 4.36076 20.2501Z" fill="#FFFFFE"/>
<path fill-rule="evenodd" clip-rule="evenodd" d="M10.0046 8.50757H5.71139V9.42864H8.69059L5.75321 13.0704C5.66112 13.2044 5.59424 13.3299 5.59424 13.6146V13.8489H9.64469C9.84562 13.8489 10.013 13.6816 10.013 13.4806V12.9866H6.88291L9.64469 9.52063C9.68651 9.47048 9.76184 9.37836 9.79535 9.33652L9.81211 9.31131C9.97108 9.07692 10.0046 8.87592 10.0046 8.63321V8.50757Z" fill="#41609D"/>
<path fill-rule="evenodd" clip-rule="evenodd" d="M15.4693 13.8489H16.0803V8.50757H15.1597V13.5392C15.1597 13.7067 15.2936 13.8489 15.4693 13.8489Z" fill="#41609D"/>
<path fill-rule="evenodd" clip-rule="evenodd" d="M12.3227 13.0204C11.6449 13.0204 11.0925 12.4677 11.0925 11.7897C11.0925 11.1116 11.6449 10.5591 12.3227 10.5591C13.0007 10.5591 13.5529 11.1116 13.5529 11.7897C13.5529 12.4677 13.009 13.0204 12.3227 13.0204ZM12.3227 9.69672C11.1678 9.69672 10.2305 10.6344 10.2305 11.7897C10.2305 12.9449 11.1678 13.8826 12.3227 13.8826C13.4778 13.8826 14.4151 12.9449 14.4151 11.7897C14.4234 10.6344 13.4861 9.69672 12.3227 9.69672Z" fill="#41609D"/>
<path fill-rule="evenodd" clip-rule="evenodd" d="M18.7999 13.0203C18.1136 13.0203 17.5612 12.4676 17.5612 11.7812C17.5612 11.0946 18.1136 10.542 18.7999 10.542C19.4861 10.542 20.0385 11.0946 20.0385 11.7812C20.0385 12.4676 19.4861 13.0203 18.7999 13.0203ZM18.7999 9.66306C17.6366 9.66306 16.6909 10.6091 16.6909 11.7728C16.6909 12.9365 17.6366 13.8825 18.7999 13.8825C19.9631 13.8825 20.9088 12.9365 20.9088 11.7728C20.9088 10.6091 19.9631 9.66306 18.7999 9.66306Z" fill="#41609D"/>
<path fill-rule="evenodd" clip-rule="evenodd" d="M13.9307 13.8488H14.4245V9.81348H13.5625V13.4889C13.5625 13.6815 13.7298 13.8488 13.9307 13.8488Z" fill="#41609D"/>
</svg>
